<svg xmlns="http://www.w3.org/2000/svg" version="1.1" xmlns:xlink="http://www.w3.org/1999/xlink" width="1024" height="1024"><svg version="1.1" xmlns="http://www.w3.org/2000/svg" width="1024" height="1024">
<path d="M0 0 C1.43920029 0.20132852 2.87849543 0.4019799 4.31787109 0.60205078 C36.97921687 5.19463857 68.71471907 12.52281357 100 23 C101.04349609 23.34611328 102.08699219 23.69222656 103.16210938 24.04882812 C152.13692665 40.45679297 198.68883055 65.06331275 240 96 C240.73089844 96.54543457 241.46179688 97.09086914 242.21484375 97.65283203 C254.45729809 106.81584652 266.18719403 116.42745883 277.48828125 126.734375 C278.84254709 127.95595228 280.20281147 129.17164314 281.5949707 130.34985352 C287.97099118 135.7802813 293.84714336 141.69588921 299.75463867 147.62426758 C301.55862085 149.43360933 303.36788665 151.23754319 305.17773438 153.04101562 C310.99759646 158.8572224 316.70449464 164.6949497 322 171 C322.87655981 172.01002188 323.75411275 173.01918302 324.6328125 174.02734375 C331.49423936 182.03951147 337.96789762 190.30198758 344.29980469 198.73779297 C345.43452676 200.24760554 346.5732152 201.75444516 347.71582031 203.25830078 C380.77856884 246.78500783 405.73962867 296.22643978 423 348 C423.35400879 349.05541992 423.70801758 350.11083984 424.07275391 351.19824219 C433.9801251 381.07377822 440.3773754 411.75679901 444.70574951 442.89654541 C444.97709792 444.83628411 445.25975828 446.77443144 445.54345703 448.71240234 C451.15755797 488.52401588 450.81852575 533.25314352 445 573 C444.79867148 574.43920029 444.5980201 575.87849543 444.39794922 577.31787109 C439.80536143 609.97921687 432.47718643 641.71471907 422 673 C421.65388672 674.04349609 421.30777344 675.08699219 420.95117188 676.16210938 C404.54320703 725.13692665 379.93668725 771.68883055 349 813 C348.45456543 813.73089844 347.90913086 814.46179688 347.34716797 815.21484375 C338.18415348 827.45729809 328.57254117 839.18719403 318.265625 850.48828125 C317.04404772 851.84254709 315.82835686 853.20281147 314.65014648 854.5949707 C309.2197187 860.97099118 303.30411079 866.84714336 297.37573242 872.75463867 C295.56639067 874.55862085 293.76245681 876.36788665 291.95898438 878.17773438 C286.1427776 883.99759646 280.3050503 889.70449464 274 895 C272.98997812 895.87655981 271.98081698 896.75411275 270.97265625 897.6328125 C262.96048853 904.49423936 254.69801242 910.96789762 246.26220703 917.29980469 C244.75239446 918.43452676 243.24555484 919.5732152 241.74169922 920.71582031 C198.21499217 953.77856884 148.77356022 978.73962867 97 996 C95.94458008 996.35400879 94.88916016 996.70801758 93.80175781 997.07275391 C63.92622178 1006.9801251 33.24320099 1013.3773754 2.10345459 1017.70574951 C0.16371589 1017.97709792 -1.77443144 1018.25975828 -3.71240234 1018.54345703 C-43.52401588 1024.15755797 -88.25314352 1023.81852575 -128 1018 C-129.43920029 1017.79867148 -130.87849543 1017.5980201 -132.31787109 1017.39794922 C-164.97921687 1012.80536143 -196.71471907 1005.47718643 -228 995 C-229.04349609 994.65388672 -230.08699219 994.30777344 -231.16210938 993.95117188 C-280.13692665 977.54320703 -326.68883055 952.93668725 -368 922 C-369.09634766 921.18184814 -369.09634766 921.18184814 -370.21484375 920.34716797 C-382.45729809 911.18415348 -394.18719403 901.57254117 -405.48828125 891.265625 C-406.84254709 890.04404772 -408.20281147 888.82835686 -409.5949707 887.65014648 C-415.97099118 882.2197187 -421.84714336 876.30411079 -427.75463867 870.37573242 C-429.55862085 868.56639067 -431.36788665 866.76245681 -433.17773438 864.95898438 C-438.99759646 859.1427776 -444.70449464 853.3050503 -450 847 C-450.87655981 845.98997812 -451.75411275 844.98081698 -452.6328125 843.97265625 C-459.49423936 835.96048853 -465.96789762 827.69801242 -472.29980469 819.26220703 C-473.43452676 817.75239446 -474.5732152 816.24555484 -475.71582031 814.74169922 C-508.77856884 771.21499217 -533.73962867 721.77356022 -551 670 C-551.35400879 668.94458008 -551.70801758 667.88916016 -552.07275391 666.80175781 C-561.9801251 636.92622178 -568.3773754 606.24320099 -572.70574951 575.10345459 C-572.97709792 573.16371589 -573.25975828 571.22556856 -573.54345703 569.28759766 C-579.15755797 529.47598412 -578.81852575 484.74685648 -573 445 C-572.79867148 443.56079971 -572.5980201 442.12150457 -572.39794922 440.68212891 C-567.80536143 408.02078313 -560.47718643 376.28528093 -550 345 C-549.65388672 343.95650391 -549.30777344 342.91300781 -548.95117188 341.83789062 C-532.54320703 292.86307335 -507.93668725 246.31116945 -477 205 C-476.45456543 204.26910156 -475.90913086 203.53820312 -475.34716797 202.78515625 C-466.18415348 190.54270191 -456.57254117 178.81280597 -446.265625 167.51171875 C-445.04404772 166.15745291 -443.82835686 164.79718853 -442.65014648 163.4050293 C-437.2197187 157.02900882 -431.30411079 151.15285664 -425.37573242 145.24536133 C-423.56639067 143.44137915 -421.76245681 141.63211335 -419.95898438 139.82226562 C-414.1427776 134.00240354 -408.3050503 128.29550536 -402 123 C-400.98997812 122.12344019 -399.98081698 121.24588725 -398.97265625 120.3671875 C-390.96048853 113.50576064 -382.69801242 107.03210238 -374.26220703 100.70019531 C-372.75239446 99.56547324 -371.24555484 98.4267848 -369.74169922 97.28417969 C-326.21499217 64.22143116 -276.77356022 39.26037133 -225 22 C-223.94458008 21.64599121 -222.88916016 21.29198242 -221.80175781 20.92724609 C-191.92622178 11.0198749 -161.24320099 4.6226246 -130.10345459 0.29425049 C-128.16371589 0.02290208 -126.22556856 -0.25975828 -124.28759766 -0.54345703 C-84.47598412 -6.15755797 -39.74685648 -5.81852575 0 0 Z " fill="#FDFEFE" transform="translate(576,3)"></path>
<path d="M0 0 C57.43694481 0 111.59655159 7.7807271 166 26 C167.04349609 26.34611328 168.08699219 26.69222656 169.16210938 27.04882812 C218.13692665 43.45679297 264.68883055 68.06331275 306 99 C306.73089844 99.54543457 307.46179688 100.09086914 308.21484375 100.65283203 C320.45729809 109.81584652 332.18719403 119.42745883 343.48828125 129.734375 C344.84254709 130.95595228 346.20281147 132.17164314 347.5949707 133.34985352 C353.97099118 138.7802813 359.84714336 144.69588921 365.75463867 150.62426758 C367.55862085 152.43360933 369.36788665 154.23754319 371.17773438 156.04101562 C376.99759646 161.8572224 382.70449464 167.6949497 388 174 C388.87655981 175.01002188 389.75411275 176.01918302 390.6328125 177.02734375 C397.49423936 185.03951147 403.96789762 193.30198758 410.29980469 201.73779297 C411.43452676 203.24760554 412.5732152 204.75444516 413.71582031 206.25830078 C446.77856884 249.78500783 471.73962867 299.22643978 489 351 C489.35400879 352.05541992 489.70801758 353.11083984 490.07275391 354.19824219 C499.9801251 384.07377822 506.3773754 414.75679901 510.70574951 445.89654541 C510.97709792 447.83628411 511.25975828 449.77443144 511.54345703 451.71240234 C517.15755797 491.52401588 516.81852575 536.25314352 511 576 C510.79867148 577.43920029 510.5980201 578.87849543 510.39794922 580.31787109 C505.80536143 612.97921687 498.47718643 644.71471907 488 676 C487.65388672 677.04349609 487.30777344 678.08699219 486.95117188 679.16210938 C470.54320703 728.13692665 445.93668725 774.68883055 415 816 C414.45456543 816.73089844 413.90913086 817.46179688 413.34716797 818.21484375 C404.18415348 830.45729809 394.57254117 842.18719403 384.265625 853.48828125 C383.04404772 854.84254709 381.82835686 856.20281147 380.65014648 857.5949707 C375.2197187 863.97099118 369.30411079 869.84714336 363.37573242 875.75463867 C361.56639067 877.55862085 359.76245681 879.36788665 357.95898438 881.17773438 C352.1427776 886.99759646 346.3050503 892.70449464 340 898 C338.98997812 898.87655981 337.98081698 899.75411275 336.97265625 900.6328125 C328.96048853 907.49423936 320.69801242 913.96789762 312.26220703 920.29980469 C310.75239446 921.43452676 309.24555484 922.5732152 307.74169922 923.71582031 C264.21499217 956.77856884 214.77356022 981.73962867 163 999 C161.94458008 999.35400879 160.88916016 999.70801758 159.80175781 1000.07275391 C113.82676852 1015.31905054 64.50349668 1024.38141017 16.01171875 1024.0703125 C14.44576194 1024.06464834 12.87980311 1024.05951909 11.31384277 1024.05493164 C7.54251006 1024.04275199 3.77127872 1024.02345784 0 1024 C-0.18280169 991.40475569 -0.32423184 958.80966005 -0.40852264 926.21401954 C-0.41852737 922.3591502 -0.42888204 918.50428188 -0.43945312 914.64941406 C-0.44155161 913.88203242 -0.44365009 913.11465077 -0.44581217 912.32401514 C-0.48055045 899.92540125 -0.54358655 887.52708641 -0.61722237 875.12864947 C-0.69223703 862.3910911 -0.73651277 849.65368853 -0.75270796 836.91591835 C-0.76364345 829.06625681 -0.79808281 821.21744077 -0.86333174 813.36803973 C-0.91092536 807.33228937 -0.9155911 801.29725449 -0.90486145 795.26129532 C-0.90705036 792.79752549 -0.92280328 790.33372166 -0.9536438 787.87014389 C-1.12756341 773.25200667 -0.17308165 762.35041603 8 750 C8.7007238 748.93845703 9.4014476 747.87691406 10.12340546 746.78320312 C11.2676359 745.10655571 12.4406079 743.44884132 13.65234375 741.8203125 C16.22829528 738.34091131 16.38679893 735.6383839 16.359375 731.39453125 C15.74341323 727.29035122 13.70379652 725.09005317 11 722 C10.34 721.67 9.68 721.34 9 721 C9 720.01 9 719.02 9 718 C11.64 718 14.28 718 17 718 C17.48198463 719.24891614 17.96045677 720.49918808 18.4375 721.75 C18.70433594 722.44609375 18.97117187 723.1421875 19.24609375 723.859375 C21.73598383 730.9291147 21.194548 738.22039231 21.1875 745.625 C21.18858765 746.78181778 21.18858765 746.78181778 21.18969727 747.96200562 C21.18849854 759.6119839 20.7601367 771.18897676 20 782.8125 C16.90530608 816.91283131 16.90530608 816.91283131 31 847 C31.59683594 847.83015625 32.19367188 848.6603125 32.80859375 849.515625 C43.45018992 861.57989446 64.18216882 866.17652439 79.54089355 867.16323853 C85.12047203 867.36188165 90.69745947 867.34134811 96.27954102 867.28125 C99.16631304 867.25022768 102.05253091 867.24026718 104.93945312 867.234375 C114.41153792 867.19543399 123.86935507 866.98705397 133.33203125 866.55859375 C134.58284737 866.50357697 134.58284737 866.50357697 135.8589325 866.44744873 C155.33426072 865.47012966 174.76927731 861.13091939 192.5 852.9375 C193.18787598 852.62143799 193.87575195 852.30537598 194.58447266 851.97973633 C198.80305291 849.9159438 201.89862136 847.61634637 205 844 C206.38901483 839.83295551 206.87579118 836.14190854 205.16845703 831.96630859 C204.03389084 829.82536158 202.82537652 827.75524472 201.5625 825.6875 C201.14162109 824.97271484 200.72074219 824.25792969 200.28710938 823.52148438 C199.51165375 822.20507091 198.72988679 820.8923392 197.93969727 819.5847168 C195.94402322 816.21918802 195.91493492 813.91299376 196 810 C195.34 810 194.68 810 194 810 C193.16187176 805.49392016 192.76795388 801.08760271 192.53515625 796.51171875 C192.4566153 795.06834656 192.3778316 793.62498757 192.29882812 792.18164062 C192.17965373 789.93739345 192.0627796 787.69308643 191.95043945 785.44848633 C191.7768475 771.596363 191.7768475 771.596363 187 759 C184.97723319 758.49378487 184.97723319 758.49378487 182.6484375 758.48828125 C181.79765625 758.45283203 180.946875 758.41738281 180.0703125 758.38085938 C179.18085937 758.35830078 178.29140625 758.33574219 177.375 758.3125 C176.4778125 758.27833984 175.580625 758.24417969 174.65625 758.20898438 C172.43762462 758.12637598 170.2194006 758.05727281 168 758 C163.74065988 768.48303345 160.76036093 778.71370109 158.625 789.8125 C152.77261602 819.52657541 152.77261602 819.52657541 142 828 C138.531093 829.93613414 137.06184807 830 133 830 C133 830.66 133 831.32 133 832 C126.17838169 834.1876751 119.74543303 834.3722471 112.62402344 834.37060547 C110.53234511 834.37493308 108.44286234 834.41118614 106.3515625 834.44921875 C93.73278902 834.55683282 81.12137794 833.09267007 71.2421875 824.46484375 C62.66993144 814.88840913 61.81747123 802.90547525 61.875 790.625 C61.87983398 789.55443359 61.88466797 788.48386719 61.88964844 787.38085938 C62.01050206 771.3024929 63.01444336 756.40825685 68.75 741.25 C70.74802373 735.45573117 71.39918971 728.75237241 69.2265625 722.92578125 C66.2473239 718.22450049 61.63069352 715.42717236 57.01171875 712.48046875 C56.34785156 711.99191406 55.68398438 711.50335937 55 711 C55 710.34 55 709.68 55 709 C58.33085327 708.23871581 61.66472728 707.49167765 65 706.75 C66.02641602 706.52111084 67.05283203 706.29222168 68.11035156 706.05639648 C74.6001334 704.64272701 81.07853013 703.49074849 87.6484375 702.52148438 C97.11855022 701.12005082 105.16159824 699.87880132 113 694 C113.35936823 690.46606 113.35936823 690.46606 111.77734375 687.4453125 C101.33810721 679.95388585 91.03569146 674.4997286 78 676 C76.90945313 676.07476563 75.81890625 676.14953125 74.6953125 676.2265625 C64.89240926 677.14893633 56.00877686 680.03539494 46.7109375 683.1328125 C41.18510514 684.96846798 35.61015045 686.56966021 30 688.125 C22.81139423 690.1229086 15.85688497 692.37981485 8.91015625 695.1171875 C6 696 6 696 0 696 C0 685.44 0 674.88 0 664 C6.93 661.525 6.93 661.525 14 659 C32.03941492 652.56341449 32.03941492 652.56341449 48.65234375 643.15625 C51 642 51 642 52.97265625 642.52734375 C55.57810609 644.41993448 58.00385902 646.45246393 60.4375 648.5625 C69.18673291 655.99261779 78.69193152 662.24283887 88.375 668.375 C89.35581543 669.00051758 89.35581543 669.00051758 90.35644531 669.63867188 C94.44210649 672.19038894 98.53023721 674.16788844 103 676 C104.36755683 676.6276761 105.73200533 677.26215595 107.09375 677.90234375 C123.15998476 685.3645843 138.04474613 689.19013962 155.90600586 689.35009766 C157.25871967 689.36667941 158.61134505 689.39399985 159.96362305 689.43212891 C170.46996108 689.81098564 170.46996108 689.81098564 179.69555664 685.39941406 C181.17703067 683.98474123 181.17703067 683.98474123 181.921875 681.60546875 C181.55822481 676.48957173 180.728081 672.7861663 178.19213867 668.32763672 C172.66535029 657.53664748 172.12910681 646.03405536 171.4375 634.1875 C171.28951455 631.71728131 171.13661032 629.24783808 170.96876526 626.77888489 C170.86558833 625.25806459 170.77336812 623.73644128 170.69468689 622.2141571 C170.30212799 616.37320584 169.28259017 610.28259017 165 606 C162.0906442 605.85482256 159.280054 605.81369204 156.375 605.875 C155.17230469 605.88853516 155.17230469 605.88853516 153.9453125 605.90234375 C151.96341477 605.92593777 149.98167019 605.96180935 148 606 C143.30338543 613.75388146 140.46494139 621.23382353 138.25 630 C137.67658454 632.20956089 137.098667 634.41795975 136.515625 636.625 C136.27102539 637.58664062 136.02642578 638.54828125 135.77441406 639.5390625 C135 642 135 642 133 645 C125.80791702 644.59290096 120.40855178 642.17281736 114 639 C113.17371094 638.61714844 112.34742188 638.23429688 111.49609375 637.83984375 C103.77977462 634.18604898 94.54232128 629.65078554 89 623 C89 622.34 89 621.68 89 621 C90.9921875 619.51171875 90.9921875 619.51171875 93.875 617.6875 C99.31376674 614.15774679 104.57704174 610.44904434 109.8125 606.625 C132.11578394 590.42747772 132.11578394 590.42747772 143 586 C145.32950022 584.04220391 145.32950022 584.04220391 145.6875 580.5 C145.53214599 575.13057703 142.31986257 572.22357541 138.72265625 568.53515625 C129.11018353 559.58466157 123.36631543 554.64862444 110.1875 554.6875 C109.10662109 554.67138672 108.02574219 554.65527344 106.91210938 554.63867188 C98.94657099 554.51442885 98.94657099 554.51442885 92 558 C91.27952127 560.5800968 91.27952127 560.5800968 91.5 563.5 C91.03504656 574.86400915 84.6164042 582.06863396 76.69140625 589.60546875 C68.38009788 597 68.38009788 597 64 597 C61.984375 594.875 61.984375 594.875 59.75 592 C56.9808436 588.4878992 54.20015495 585.05546158 51.1875 581.75 C44 573.62645349 44 573.62645349 44 569 C48.41231034 567.03380579 52.82640102 565.07240068 57.25390625 563.140625 C70.57808401 557.30794666 83.54465011 550.9262588 96.33642578 544.0065918 C99.62299034 542.2364688 102.9286279 540.52864051 106.28515625 538.89453125 C106.99929688 538.54583984 107.7134375 538.19714844 108.44921875 537.83789062 C109.81155049 537.17687014 111.17722899 536.5226819 112.546875 535.87695312 C117.51052738 533.46676728 122.05484786 530.65248019 125.375 526.125 C126.27594143 523.06179913 126.12190046 520.16941191 126 517 C117.36139673 515.9389495 108.84838686 515.70958246 100.15283203 515.64990234 C98.3841439 515.63329953 96.61552403 515.60595275 94.84716797 515.56787109 C81.06723092 515.07255281 81.06723092 515.07255281 69 521 C67.52728265 521.94244648 66.04784637 522.87446081 64.5625 523.796875 C63.04136738 524.78078746 61.52054261 525.76517599 60 526.75 C53.62276157 530.82646068 47.18147938 534.69176424 40.5 538.25 C39.7884375 538.6325293 39.076875 539.01505859 38.34375 539.40917969 C33.38023269 542 33.38023269 542 30 542 C26.47111018 536.42846985 24.62899384 531.03858066 22.9375 524.6875 C22.44727864 522.89955738 21.95639496 521.11179622 21.46484375 519.32421875 C21.22709229 518.43629639 20.98934082 517.54837402 20.74438477 516.63354492 C20.26009271 514.92017713 19.73374939 513.21796136 19.15991211 511.5324707 C16.57868871 503.89281426 16.61243257 496.66185605 16.73632812 488.65820312 C16.67795338 483.81924365 16.60682002 480.00697575 13.58203125 476.07421875 C9.28964032 472.13826781 9.28964032 472.13826781 0 468 C-0.33 449.19 -0.66 430.38 -1 411 C-7.00292965 419.52742957 -7.00292965 419.52742957 -11.8125 428.5 C-33.59799764 473.33220419 -65.18060225 505.43643799 -112.87890625 522.41796875 C-122.03984151 525.41702353 -122.03984151 525.41702353 -126 524 C-124.59691447 519.3175134 -122.34584681 517.26093401 -118.5625 514.25 C-117.76223389 513.60430054 -117.76223389 513.60430054 -116.94580078 512.94555664 C-115.30374295 511.62196586 -113.65209019 510.31103275 -112 509 C-105.63317804 503.85657279 -99.38927464 498.6405047 -93.34375 493.12109375 C-91.20075688 491.18168497 -89.01655362 489.30670701 -86.8125 487.4375 C-82.80454791 483.93354188 -79.41140297 480.07687172 -76 476 C-75.23816406 475.12601562 -74.47632813 474.25203125 -73.69140625 473.3515625 C-64.16581239 462.26561395 -56.59768176 450.36401444 -49.5625 437.5625 C-48.79993896 436.17732178 -48.79993896 436.17732178 -48.02197266 434.76416016 C-45.2367111 429.60194275 -42.94139367 424.5332688 -41 419 C-40.3389357 417.39351653 -39.67312173 415.78896879 -39 414.1875 C-35.40022586 405.16737628 -33.75369528 396.65305618 -33 387 C-33.96655518 386.93268677 -33.96655518 386.93268677 -34.95263672 386.86401367 C-37.92772257 386.65013776 -40.90122898 386.41891478 -43.875 386.1875 C-45.39480469 386.08211914 -45.39480469 386.08211914 -46.9453125 385.97460938 C-63.33898628 384.66101372 -63.33898628 384.66101372 -68 380 C-67.875 377.5 -67.875 377.5 -67 375 C-62.00799248 371.30221665 -54.70530606 371.82382596 -48.75 371.5625 C-43.18891785 371.27708808 -37.88818878 370.78710726 -32.44921875 369.53125 C-29.5021698 368.89201769 -26.54845896 368.48256457 -23.5625 368.0625 C-18.39556974 367.30086523 -13.51795492 366.14161807 -8.53515625 364.5859375 C-6 364 -6 364 0 364 C0 353.11 0 342.22 0 331 C-4.269375 332.175625 -4.269375 332.175625 -8.625 333.375 C-22.18337832 336.97906726 -35.0219218 338.32676027 -49 338 C-49.33 336.35 -49.66 334.7 -50 333 C-46.1942603 329.32111829 -42.68926378 328.19584142 -37.734375 326.83984375 C-33.93723356 325.67357888 -30.4466576 324.01261814 -26.859375 322.3203125 C-23.89718603 320.95252579 -20.90040422 319.72091186 -17.875 318.5 C-13.30104938 316.62640514 -9.06671209 314.47612929 -4.83984375 311.91796875 C-3 311 -3 311 0 311 C0 293.18 0 275.36 0 257 C-5.445 258.98 -5.445 258.98 -11 261 C-25.75117963 266.23137281 -43.22651902 271.22326512 -59 269 C-61 267 -61 267 -61.5625 264.6875 C-61 262 -61 262 -58.4375 259.5625 C-50.78289072 254.61043644 -41.50382097 251.92326071 -33.00390625 248.765625 C-24.07155163 245.35287353 -15.49526972 241.38319767 -7 237 C-7 233.14251504 -8.64846541 230.75817296 -10.5 227.5 C-15.39068971 218.6291038 -19.19322501 209.37431745 -23 200 C-32.09383453 177.1738847 -32.09383453 177.1738847 -47.92578125 158.84765625 C-50.58083702 156.48260657 -50.94736241 155.61849166 -51.25 152.0625 C-51 149 -51 149 -49.99609375 147.33203125 C-46.83204098 145.22059878 -43.48671346 145.55894327 -39.8125 145.625 C-38.61669312 145.63805176 -38.61669312 145.63805176 -37.39672852 145.65136719 C-23.64021962 145.98353821 -11.84001828 148.89598903 0 156 C0 104.52 0 53.04 0 0 Z " fill="#000000" transform="translate(510,0)"></path>
<path d="M0 0 C5.55348948 2.22916291 10.48669567 5.13193025 15.5 8.375 C16.73393094 9.15955302 17.96833763 9.9433581 19.203125 10.7265625 C29.24710357 17.12210357 29.24710357 17.12210357 30.5 18.375 C31.40069441 23.05861095 31.16798446 25.28917589 28.6328125 29.41015625 C27.84858473 30.50983594 27.0538528 31.60208336 26.25 32.6875 C16.1794903 46.3348379 15.23432929 61.69124496 14.859375 78.2265625 C14.84020775 78.96447651 14.8210405 79.70239052 14.80129242 80.46266556 C14.40467547 96.1395782 14.48691152 111.81695468 14.56783867 127.49729061 C14.57813437 129.52528342 14.58769474 131.55327836 14.59700012 133.58127594 C14.61590163 137.69871953 14.63578047 141.81615767 14.65625 145.93359375 C14.65965487 146.62098176 14.66305975 147.30836978 14.6665678 148.01658773 C14.70567709 155.78381713 14.7544476 163.55083671 14.82226562 171.31787109 C14.87699863 177.59916604 14.91349647 183.88029106 14.92977214 190.1618067 C14.93903372 193.45180302 14.95998749 196.74102879 14.99808502 200.0308342 C15.29129264 225.92826753 15.29129264 225.92826753 9.5 237.375 C8.99212952 238.43786224 8.48425903 239.50072449 7.96099854 240.59579468 C5.30021417 246.00242536 2.79755642 250.3478249 -2.5 253.375 C-6.54796001 253.51458483 -8.55719124 253.1561844 -11.6875 250.5625 C-14.416133 245.76386955 -15.86854892 240.62963202 -17.5 235.375 C-19.23323498 229.52795835 -19.23323498 229.52795835 -23.5 225.375 C-26.39659349 225.13378651 -29.2053355 225.00200558 -32.10546875 224.9609375 C-32.94467361 224.94157135 -33.78387848 224.9222052 -34.64851379 224.9022522 C-37.32807258 224.84248787 -40.0076744 224.79608388 -42.6875 224.75 C-44.50457599 224.7118173 -46.32163394 224.67276539 -48.13867188 224.6328125 C-52.59230132 224.53678897 -57.04601551 224.45274641 -61.5 224.375 C-61.55188477 225.01711426 -61.60376953 225.65922852 -61.65722656 226.32080078 C-62.11446485 231.46234015 -62.76845382 236.28317716 -64.25 241.25 C-64.55421875 242.31992187 -64.8584375 243.38984375 -65.171875 244.4921875 C-66.74241957 247.90119306 -68.38482262 249.33186669 -71.5 251.375 C-74.84773961 252.2119349 -76.65074445 251.86095427 -79.63671875 250.15234375 C-86.19416998 245.44300271 -91.91412737 239.13261789 -94.5 231.375 C-95.20369567 223.36073575 -93.78931499 216.34631676 -91.5625 208.6875 C-91.00685621 206.72663179 -90.45597331 204.76440746 -89.91015625 202.80078125 C-89.66402588 201.94911377 -89.41789551 201.09744629 -89.16430664 200.2199707 C-87.49683199 193.07881596 -87.33928416 186.00596354 -87.30712891 178.70922852 C-87.29895142 177.66866806 -87.29077393 176.6281076 -87.28234863 175.55601501 C-87.2576111 172.12198427 -87.24099041 168.68799517 -87.2265625 165.25390625 C-87.22123882 164.0667848 -87.21591515 162.87966335 -87.21043015 161.65656853 C-87.18372341 155.34860762 -87.1643577 149.04066614 -87.14990234 142.73266602 C-87.13668681 137.58046219 -87.10906315 132.42866612 -87.06787109 127.27661133 C-84.55838088 73.90931228 -84.55838088 73.90931228 -101.53515625 24.74609375 C-103.53042216 21.65895595 -104.50549923 19.76544556 -104.453125 16.046875 C-103.5 13.375 -103.5 13.375 -100.5 11.375 C-94.77261277 10.59168061 -89.72334544 11.22183074 -84.484375 13.62109375 C-69.58872689 19.28026715 -49.18065933 15.46837165 -34.875 9.6875 C-32.10613907 8.35952204 -29.55613244 6.7837954 -26.98046875 5.12109375 C-17.26131584 -1.11378824 -11.44294373 -3.72375124 0 0 Z " fill="#050404" transform="translate(418.5,210.625)"></path>
<path d="M0 0 C4.1475338 6.09169027 5.45128121 11.11170428 5.51171875 18.4296875 C5.52976059 19.2876442 5.54780243 20.14560089 5.56639099 21.02955627 C5.62236197 23.95716399 5.65556039 26.88453718 5.6875 29.8125 C5.72018841 31.93498266 5.75324281 34.05745971 5.78662109 36.17993164 C6.10124318 58.57701642 6.10156236 80.9794581 6.12204361 103.37833405 C6.12498186 106.35661482 6.12914905 109.33489222 6.13339233 112.31317139 C6.13937217 117.09465028 6.13916263 121.87609561 6.13450813 126.65757561 C6.13340179 128.42804882 6.13386163 130.19852391 6.13610649 131.96899605 C6.14568502 141.01653829 6.04486396 150.05703146 5.67919922 159.09790039 C5.65723543 159.85335616 5.63527164 160.60881193 5.61264229 161.3871603 C5.34590018 166.9524127 3.98137862 171.74262699 2 176.9375 C-2 176.9375 -2 176.9375 -3.796875 175.45703125 C-6.97171225 173.26729421 -9.42646497 173.57549208 -13.25 173.625 C-15.14492188 173.63080078 -15.14492188 173.63080078 -17.078125 173.63671875 C-24.08106185 174.064676 -31.03817729 175.06727216 -38 175.9375 C-38 151.5175 -38 127.0975 -38 101.9375 C-30.08 101.4425 -30.08 101.4425 -22 100.9375 C-18.06107356 99.96299937 -14.52022404 98.98948928 -10.75 97.625 C-9.40615234 97.18124023 -9.40615234 97.18124023 -8.03515625 96.72851562 C-3.53484777 95.17123399 0.06428856 93.89188727 3 89.9375 C3.83333333 87.4375 3.83333333 87.4375 3 84.9375 C-3.49906094 79.52161588 -10.24946967 78.4502672 -18.46484375 78.53515625 C-23.47994198 79.10593539 -27.72422182 80.8210206 -32.3203125 82.84375 C-35 83.9375 -35 83.9375 -38 83.9375 C-38.26247807 74.98338981 -38.52337483 66.0292353 -38.78230286 57.07502174 C-38.90260693 52.91636547 -39.02343727 48.75772592 -39.14550781 44.59912109 C-39.26348978 40.57912122 -39.38004038 36.55908208 -39.49563599 32.53901291 C-39.53978445 31.01216553 -39.5844319 29.48533248 -39.62960815 27.95851517 C-39.86625015 19.9495766 -40.05502577 11.95062804 -40 3.9375 C-38.10507994 3.59901348 -36.20901534 3.26693089 -34.3125 2.9375 C-32.72888672 2.6590625 -32.72888672 2.6590625 -31.11328125 2.375 C-28.35095938 1.98681926 -25.78257957 1.85490024 -23 1.9375 C-23 1.2775 -23 0.6175 -23 -0.0625 C-6.41747573 -4.41201456 -6.41747573 -4.41201456 0 0 Z " fill="#FAFAFA" transform="translate(398,240.0625)"></path>
<path d="M0 0 C2.89048059 0.24599835 4.49472814 0.46485346 6.51953125 2.609375 C6.94621094 3.31578125 7.37289062 4.0221875 7.8125 4.75 C8.3178125 5.56210937 8.823125 6.37421875 9.34375 7.2109375 C9.8903125 8.13132812 10.436875 9.05171875 11 10 C15.60007286 17.73825816 20.2681642 24.87706551 26.21484375 31.66015625 C27.91594188 33.88982316 28.60170776 35.26253113 29 38 C23.06522259 42.35131185 17.06264994 46.20618849 10.5546875 49.64453125 C8.31141982 50.83476655 6.12288725 52.08281045 3.9375 53.375 C1 55 1 55 -1 55 C-1.02526605 47.32788798 -1.04283123 39.6557866 -1.05493164 31.98364258 C-1.05997377 29.37133381 -1.06680725 26.75902789 -1.07543945 24.14672852 C-1.08751036 20.40119732 -1.09322935 16.65570328 -1.09765625 12.91015625 C-1.10281754 11.73413345 -1.10797882 10.55811066 -1.11329651 9.34645081 C-1.11340981 7.72488319 -1.11340981 7.72488319 -1.11352539 6.07055664 C-1.115746 5.11347305 -1.11796661 4.15638947 -1.12025452 3.17030334 C-1 1 -1 1 0 0 Z " fill="#050505" transform="translate(511,585)"></path>
<path d="M0 0 C2.64 0 5.28 0 8 0 C8.50833591 1.24663331 9.00631145 2.49749387 9.5 3.75 C9.7784375 4.44609375 10.056875 5.1421875 10.34375 5.859375 C11 8 11 8 11 12 C10.34 12 9.68 12 9 12 C9 13.65 9 15.3 9 17 C8.67 17 8.34 17 8 17 C7.62875 15.1746875 7.62875 15.1746875 7.25 13.3125 C6.28115233 9.40942794 4.8359991 6.92462408 2 4 C1.34 3.67 0.68 3.34 0 3 C0 2.01 0 1.02 0 0 Z " fill="#191919" transform="translate(519,718)"></path>
<path d="M0 0 C0.33 0 0.66 0 1 0 C1 18.81 1 37.62 1 57 C0.67 57 0.34 57 0 57 C-0.33 39.84 -0.66 22.68 -1 5 C-2.32 5.99 -3.64 6.98 -5 8 C-3.6299034 5.0490227 -2.06764583 2.51713405 0 0 Z " fill="#E1E1E1" transform="translate(509,410)"></path>
<path d="M0 0 C0 2.31 0 4.62 0 7 C-2 7 -2 7 -3.625 5.6875 C-5 4 -5 4 -5 1 C-2 0 -2 0 0 0 Z " fill="#BDBDBD" transform="translate(510,384)"></path>
</svg><style>@media (prefers-color-scheme: light) { :root { filter: none; } }
@media (prefers-color-scheme: dark) { :root { filter: none; } }
</style></svg>